<svg xmlns="http://www.w3.org/2000/svg" viewBox="0 0 320 240" role="img" aria-labelledby="title desc"><title id="title">市報のおがた</title><desc id="desc">市報の紙面とチューリップを描いたやわらかなイラスト</desc><defs><filter id="soft" x="-20%" y="-20%" width="140%" height="140%"><feGaussianBlur stdDeviation="8"/></filter><filter id="shadow" x="-30%" y="-30%" width="160%" height="160%"><feDropShadow dx="0" dy="5" stdDeviation="5" flood-color="#555e69" flood-opacity=".15"/></filter><linearGradient id="paper" x1="0" y1="0" x2="1" y2="1"><stop stop-color="#fffef9"/><stop offset="1" stop-color="#e8f0f4"/></linearGradient></defs><g opacity=".46" filter="url(#soft)"><ellipse cx="160" cy="132" rx="132" ry="84" fill="#dbeaf0"/><circle cx="62" cy="66" r="35" fill="#f4dfab"/><circle cx="260" cy="67" r="37" fill="#e3d9ef"/></g><g filter="url(#shadow)"><rect x="65" y="39" width="190" height="164" rx="16" fill="url(#paper)" stroke="#78909b" stroke-width="5"/><rect x="83" y="59" width="154" height="28" rx="8" fill="#8aa7b4"/><path d="M96 73h50M158 73h65" stroke="#fff" stroke-width="7" stroke-linecap="round"/><rect x="84" y="104" width="61" height="67" rx="8" fill="#f4dfab"/><path d="M161 108h66M161 127h66M161 146h51M84 186h143" stroke="#93a9b1" stroke-width="8" stroke-linecap="round"/></g><g transform="translate(94 113)"><path d="M20 25c-17-9-18-27-3-31 9-3 16 2 20 11 4-9 11-14 20-11 15 4 14 22-3 31L37 37Z" fill="#e9868b"/><path d="M37 35v23M36 45c-9-8-17-7-23-3M38 48c9-8 17-7 23-3" fill="none" stroke="#6fa177" stroke-width="5" stroke-linecap="round"/></g></svg>
